<!DOCTYPE svg PUBLIC "-//W3C//DTD SVG 20010904//EN" "http://www.w3.org/TR/2001/REC-SVG-20010904/DTD/svg10.dtd">
<svg version="1.0" xmlns="http://www.w3.org/2000/svg" width="111px" height="104px" viewBox="0 0 1110 1040" preserveAspectRatio="xMidYMid meet">
<g id="layer101" fill="#ffe400" stroke="none">
 <path d="M210 1027 c0 -8 29 -98 64 -200 l64 -184 -171 -119 -172 -119 210 -3 211 -2 58 -178 c32 -97 63 -188 69 -202 8 -22 18 1 77 175 l67 200 210 5 211 5 -165 114 c-91 63 -167 120 -169 126 -3 6 25 96 60 200 36 104 64 190 62 192 -1 2 -79 -51 -171 -117 -93 -66 -175 -118 -182 -116 -10 4 -278 195 -320 229 -9 7 -13 5 -13 -6z m540 -267 l-49 -139 120 -83 121 -83 -148 -5 -147 -5 -43 -125 -42 -125 -1 270 -1 271 113 81 c61 45 115 82 119 82 4 1 -15 -62 -42 -139z"/>
 </g>

</svg>