<!DOCTYPE svg PUBLIC "-//W3C//DTD SVG 20010904//EN" "http://www.w3.org/TR/2001/REC-SVG-20010904/DTD/svg10.dtd">
<svg version="1.0" xmlns="http://www.w3.org/2000/svg" width="103px" height="102px" viewBox="0 0 1030 1020" preserveAspectRatio="xMidYMid meet">
<g id="layer101" fill="#ffffff" stroke="none">
 <path d="M348 1001 c-146 -47 -283 -184 -328 -330 -27 -87 -27 -235 0 -322 46 -147 183 -284 331 -330 84 -26 234 -26 320 1 150 46 269 160 329 315 20 50 24 78 24 175 0 97 -4 125 -24 175 -60 155 -179 269 -329 315 -84 27 -242 27 -323 1z m363 -73 c294 -145 354 -528 120 -751 -89 -85 -171 -120 -289 -125 -191 -9 -344 72 -435 229 -69 119 -77 289 -19 413 41 87 97 154 169 202 88 58 150 74 274 71 99 -2 110 -4 180 -39z"/>
 <path d="M440 914 c-29 -25 -69 -91 -84 -141 -7 -23 -3 -25 97 -38 l47 -6 0 105 c0 119 -5 126 -60 80z"/>
 <path d="M530 835 l0 -106 33 5 c17 3 49 8 70 11 20 3 37 10 37 15 0 25 -50 119 -79 148 -55 54 -61 46 -61 -73z"/>
 <path d="M325 905 c-51 -25 -125 -80 -125 -94 0 -4 24 -15 53 -26 28 -10 57 -20 63 -22 5 -2 21 22 33 52 13 31 35 70 48 86 l25 29 -24 0 c-12 -1 -45 -12 -73 -25z"/>
 <path d="M624 908 c9 -13 30 -51 46 -85 17 -35 32 -63 34 -63 20 0 116 45 116 55 0 25 -150 114 -194 115 -17 0 -18 -1 -2 -22z"/>
 <path d="M143 748 c-30 -49 -63 -146 -63 -189 l0 -29 104 0 104 0 7 63 c4 34 10 79 15 100 8 37 7 39 -20 49 -16 5 -46 18 -66 29 -21 10 -42 19 -46 19 -4 0 -20 -19 -35 -42z"/>
 <path d="M785 764 c-27 -13 -56 -24 -62 -24 -16 0 -16 1 -1 -116 l11 -94 109 0 108 0 -6 43 c-13 82 -70 206 -99 213 -5 1 -32 -8 -60 -22z"/>
 <path d="M337 698 c-3 -12 -9 -56 -13 -95 l-7 -73 92 0 91 0 0 90 0 90 -49 0 c-27 0 -62 3 -78 6 -26 5 -31 3 -36 -18z"/>
 <path d="M588 713 l-58 -4 0 -89 0 -90 86 0 87 0 -6 78 c-7 93 -14 113 -36 110 -9 -1 -42 -3 -73 -5z"/>
 <path d="M83 444 c5 -51 47 -156 78 -197 13 -16 18 -16 84 12 53 23 69 35 67 48 -1 10 -8 57 -14 106 l-12 87 -104 0 -105 0 6 -56z"/>
 <path d="M324 423 c11 -120 13 -126 49 -119 16 3 51 6 78 6 l49 0 0 95 0 95 -91 0 -92 0 7 -77z"/>
 <path d="M530 406 l0 -93 72 -6 c40 -3 74 -4 76 -2 9 8 21 91 22 143 l0 52 -85 0 -85 0 0 -94z"/>
 <path d="M721 394 c-7 -59 -11 -107 -9 -108 2 -1 28 -12 58 -25 30 -12 60 -25 67 -28 27 -11 93 126 108 225 l7 42 -109 0 -109 0 -13 -106z"/>
 <path d="M367 273 c-13 -3 -16 -10 -11 -26 15 -50 55 -116 84 -141 54 -45 60 -38 60 74 l0 100 -57 -1 c-32 -1 -66 -3 -76 -6z"/>
 <path d="M530 180 c0 -58 4 -100 10 -100 23 0 79 65 105 121 32 73 28 79 -57 79 l-58 0 0 -100z"/>
 <path d="M253 239 c-29 -11 -53 -24 -53 -29 0 -25 159 -120 202 -120 13 0 10 10 -17 50 -18 27 -38 65 -45 85 -13 40 -17 41 -87 14z"/>
 <path d="M677 210 c-10 -27 -29 -63 -43 -80 -15 -17 -24 -33 -21 -37 19 -18 207 83 207 112 0 10 -96 55 -119 55 -3 0 -14 -22 -24 -50z"/>
 </g>

</svg>