<!DOCTYPE svg PUBLIC "-//W3C//DTD SVG 20010904//EN" "http://www.w3.org/TR/2001/REC-SVG-20010904/DTD/svg10.dtd">
<svg version="1.0" xmlns="http://www.w3.org/2000/svg" width="95px" height="126px" viewBox="0 0 950 1260" preserveAspectRatio="xMidYMid meet">
<g id="layer101" fill="#ffe400" stroke="none">
 <path d="M309 1237 c-131 -45 -249 -166 -289 -294 -14 -45 -20 -93 -20 -157 0 -138 26 -213 110 -316 36 -43 37 -48 42 -140 8 -146 56 -232 168 -298 37 -22 59 -27 136 -30 82 -4 98 -2 146 20 72 33 118 75 153 140 26 47 30 65 33 158 l4 105 42 46 c123 137 151 351 69 527 -39 84 -132 175 -221 220 -73 35 -81 37 -191 40 -100 2 -125 -1 -182 -21z m324 -99 c73 -35 155 -116 192 -193 27 -54 30 -70 30 -160 0 -90 -3 -106 -30 -160 -37 -77 -118 -158 -192 -193 -52 -24 -70 -27 -163 -27 -95 0 -111 3 -162 28 -35 17 -79 52 -116 92 -78 83 -104 149 -104 260 0 108 26 177 99 255 96 104 159 131 298 127 74 -2 101 -7 148 -29z m-306 -809 c79 -29 217 -26 307 6 l68 24 -4 -64 c-5 -75 -36 -128 -101 -171 -54 -36 -146 -45 -212 -19 -82 31 -145 126 -145 220 0 31 3 36 18 30 9 -4 41 -16 69 -26z"/>
 <path d="M418 1139 c-198 -22 -338 -219 -299 -420 25 -125 108 -227 219 -269 48 -18 73 -21 152 -18 115 5 171 30 243 107 74 80 92 127 92 246 0 119 -18 166 -92 246 -82 87 -184 123 -315 108z m32 -69 c0 -15 7 -20 25 -20 18 0 25 5 25 20 0 15 7 20 25 20 18 0 25 -5 25 -20 0 -22 10 -26 27 -9 8 8 17 8 32 0 19 -11 20 -13 6 -35 -14 -21 -14 -24 0 -36 13 -11 19 -9 39 9 22 21 23 21 40 2 11 -12 14 -21 7 -26 -19 -11 -12 -28 9 -22 13 3 24 -1 30 -13 15 -29 12 -37 -16 -44 -39 -10 -28 -42 14 -38 27 2 33 -2 38 -24 4 -17 2 -29 -7 -35 -12 -7 -12 -10 -1 -18 8 -4 12 -19 10 -32 -2 -20 -9 -24 -38 -24 -44 0 -56 -31 -16 -41 14 -3 26 -11 26 -18 0 -21 -18 -39 -34 -33 -20 8 -31 -10 -17 -27 8 -10 6 -18 -9 -31 -19 -17 -20 -17 -39 6 -19 23 -21 23 -37 7 -17 -17 -17 -18 2 -39 18 -21 18 -21 -1 -35 -24 -18 -34 -18 -41 1 -8 20 -24 9 -24 -16 0 -14 -7 -19 -25 -19 -18 0 -25 5 -25 20 0 15 -7 20 -25 20 -19 0 -25 -5 -25 -21 0 -16 -5 -20 -27 -17 -20 2 -27 8 -25 21 3 19 -24 24 -31 5 -3 -10 -9 -10 -30 1 -26 14 -26 14 -9 43 15 25 15 30 2 38 -22 14 -25 13 -40 -15 l-13 -25 -24 22 c-16 15 -20 25 -13 32 16 16 12 29 -9 23 -13 -3 -22 3 -30 19 -10 22 -8 26 15 34 38 15 28 46 -13 42 -28 -3 -33 1 -39 24 -4 17 -3 29 3 31 7 3 9 20 5 45 l-5 41 36 -7 c33 -6 37 -5 37 14 0 13 -9 24 -25 30 -22 8 -24 12 -14 34 8 17 17 22 32 18 17 -4 19 -1 15 16 -4 13 1 27 12 37 17 15 19 15 33 -5 9 -13 20 -18 31 -14 20 8 20 22 1 44 -14 15 -13 18 10 28 15 7 27 8 30 2 10 -16 38 -12 32 4 -7 19 1 26 30 26 16 0 23 -6 23 -20z"/>
 <path d="M421 989 c-30 -4 -66 -16 -80 -26 -70 -51 -94 -193 -48 -283 36 -70 63 -85 170 -88 81 -2 97 0 131 20 57 33 81 85 81 178 0 156 -83 220 -254 199z"/>
 </g>

</svg>